<?xml version="1.0" encoding="UTF-8"?>
<svg id="Layer_1" data-name="Layer 1" xmlns="http://www.w3.org/2000/svg" version="1.1" viewBox="0 0 150 150">
  <defs>
    <style>
      .cls-1 {
        fill: #fff;
        stroke-width: 0px;
      }
    </style>
  </defs>
  <g id="_Слой_1-2" data-name=" Слой 1-2">
    <path class="cls-1" d="M137.8,97.2l-3.1,3.1c-.9.9-2.4.2-2.4-1v-23.8c0-5.7-6.9-8.6-10.9-4.6l-10.8,10.6v-5.8c0-5.7-6.9-8.6-10.9-4.6l-10.6,10.5v-35.6c0-5.7-6.9-8.6-10.9-4.6L9.2,108.8h5.7l62.9-61.8v45.5l-7.7,7.6c-.9.9-2.4.2-2.4-1v-23.5c0-5.7-6.9-8.6-11-4.6l-8.6,8.4v5.5l5.6-5.5c.9-.9,2.4-.2,2.4,1v23.5c0,5.7,6.9,8.6,11,4.6l10.7-10.5v5.8c0,5.7,6.9,8.6,10.9,4.6l10.3-10.1v5.9c0,5.7,6.9,8.6,10.9,4.6l9.2-9-3-2.5-3.2,3.2c-.9.9-2.4.2-2.4-1v-12.4l7.9-7.7c.9-.9,2.4-.2,2.4,1v23.8c0,5.7,6.9,8.6,10.9,4.6l9.1-8.9-3-2.5h0ZM91.3,100.4c-.9.9-2.4.2-2.4-1v-12.4l7.7-7.6c.9-.9,2.4-.2,2.4,1v12.4l-7.7,7.6Z"/>
    <path class="cls-1" d="M101.1,40.5c-.6,0-.8.7-.3,1,2.3,1.4,5.5,4.1,5.2,9.2.2,5.1-3,7.9-5.2,9.2-.5.3-.2,1.1.3,1,6.1-.8,8.3-5.7,8.3-10.2s-2.2-9.5-8.3-10.2h0Z"/>
    <path class="cls-1" d="M110.3,40.5c-.6,0-.8.7-.3,1,2.3,1.4,5.5,4.1,5.2,9.2.2,5.1-3,7.9-5.2,9.2-.5.3-.2,1.1.3,1,6.1-.8,8.3-5.7,8.3-10.2s-2.2-9.5-8.3-10.2h0Z"/>
    <path class="cls-1" d="M119.4,40.5c-.6,0-.8.7-.3,1,2.3,1.4,5.5,4.1,5.2,9.2.2,5.1-3,7.9-5.2,9.2-.5.3-.2,1.1.3,1,6.1-.8,8.3-5.7,8.3-10.2s-2.2-9.5-8.3-10.2h0Z"/>
  </g>
</svg>